<svg width="40" height="52" fill="none" xmlns="http://www.w3.org/2000/svg"><path fill-rule="evenodd" clip-rule="evenodd" d="M17.114 3.37h-.137c-.21-.013-.42-.018-.63-.024h-.455c-.397 0-.802.01-1.204.031a.625.625 0 00-.091 0A28.275 28.275 0 004.08 6.06l-.432.208V28.41l1.012-.343c.888-.305 1.834-.58 2.813-.834a34.328 34.328 0 018.095-1.076v2.91a24.28 24.28 0 00-1.065.03h-.084a32.36 32.36 0 00-6.228.956 31.634 31.634 0 00-7.42 2.891V4.547A29.727 29.727 0 018.557 1.38a29.793 29.793 0 017.336-.946h.427c.511.013 1.01.035 1.478.071 1.233.087 2.456.281 3.655.582v2.864a22.624 22.624 0 00-3.614-.54c-.247-.022-.494-.043-.724-.043zm5.039 2.926c.635.049 1.293.071 1.958.071a31.467 31.467 0 007.713-.989 31.777 31.777 0 007.417-2.894v27.891a29.819 29.819 0 01-7.786 3.166 29.943 29.943 0 01-7.337.943 22.405 22.405 0 01-5.565-.656V5.758c.43.098.873.19 1.323.266a24.85 24.85 0 002.277.272zm14.194.216l-1.012.341c-.93.313-1.87.593-2.813.842a34.263 34.263 0 01-8.406 1.078c-.66 0-1.267-.018-1.854-.056l-.807-.053V31.44l.693.06a22.81 22.81 0 001.973.084 26.888 26.888 0 006.62-.857 27.764 27.764 0 005.173-1.858l.433-.209V6.512z" fill="#AFB1B8"/><path d="M2.737 42.647a1.492 1.492 0 00-1.126-.455 1.674 1.674 0 00-.65.122 1.463 1.463 0 00-.832.842c-.08.2-.119.413-.116.628v3.794c-.01.267.042.533.149.778.09.194.219.368.38.509.151.127.329.22.52.27.185.051.376.078.567.078.211.002.42-.043.612-.132a1.599 1.599 0 00.96-1.465v-.425h-.993v.339a.881.881 0 01-.058.338.608.608 0 01-.144.213.697.697 0 01-.415.145.503.503 0 01-.465-.203.899.899 0 01-.132-.509v-3.537c-.006-.196.036-.39.122-.567a.507.507 0 01.485-.229.527.527 0 01.443.214.806.806 0 01.164.508v.328h.982v-.386a1.788 1.788 0 00-.121-.664 1.562 1.562 0 00-.332-.534zM8.629 42.604a1.765 1.765 0 00-1.128-.417c-.202 0-.403.037-.592.107a1.559 1.559 0 00-.908.842c-.1.231-.15.482-.145.734v3.64c-.006.255.043.51.145.744.09.196.22.37.384.509.152.14.33.25.524.32.19.07.39.106.592.107a1.714 1.714 0 001.128-.427c.158-.142.286-.315.374-.509.102-.234.151-.489.145-.745V43.87a1.77 1.77 0 00-.145-.735 1.643 1.643 0 00-.374-.531zm-.463 4.905a.654.654 0 01-.197.527.727.727 0 01-.934 0 .651.651 0 01-.197-.527V43.87a.654.654 0 01.197-.526.727.727 0 01.934 0 .651.651 0 01.197.526v3.64zM16.367 49.134v-6.889h-.953l-1.253 3.647h-.017l-1.263-3.647h-.943v6.89h.984v-4.191h.018l.963 2.962h.491l.972-2.962h.017v4.19h.984zM21.958 42.728c-.151-.17-.343-.299-.556-.376a2.184 2.184 0 00-.714-.107h-1.462v6.89h.982v-2.691h.505c.307.014.611-.051.886-.189a1.43 1.43 0 00.539-.526c.113-.183.19-.387.225-.6.038-.26.056-.521.053-.783.01-.331-.023-.662-.096-.984a1.467 1.467 0 00-.362-.634zm-.506 2.1a.866.866 0 01-.091.36.553.553 0 01-.253.241 1.007 1.007 0 01-.463.087h-.448v-2.343h.506a.941.941 0 01.443.087.556.556 0 01.23.254c.054.121.083.252.086.384v.458c0 .16.01.325 0 .473h-.01zM26.608 42.245h-.805l-1.518 6.89h.982l.288-1.48h1.338l.289 1.48h.982l-1.556-6.89zm-.906 4.47l.483-2.496h.018l.48 2.497h-.981zM32.95 46.395h-.018l-1.482-4.15h-.944v6.89h.982v-4.143h.02l1.5 4.142h.923v-6.889h-.981v4.15zM38.948 42.245l-.79 2.74h-.02l-.79-2.74H36.31l1.348 3.978v2.911h.982v-2.911l1.348-3.977h-1.04zM0 51.08h.473v1.327h.321v-1.328h.47v-.272H0v.272zM3.977 50.807l-.62 1.6h.341l.132-.364h.637l.137.364h.35l-.636-1.6h-.341zm-.05.967l.217-.593.217.593h-.435zM7.908 51.817h.37v.206a.613.613 0 01-.38.135.404.404 0 01-.34-.153.669.669 0 01-.118-.417c0-.356.154-.534.46-.534a.337.337 0 01.362.254l.316-.06c-.068-.313-.293-.471-.678-.471a.804.804 0 00-.559.206.78.78 0 00-.23.615.873.873 0 00.205.6.776.776 0 00.607.234.96.96 0 00.678-.254v-.63h-.693v.269zM11.923 50.807h-.324v1.6h1.12v-.272h-.796v-1.328zM15.318 50.807h-.324v1.6h.324v-1.6zM18.637 51.875l-.656-1.068h-.313v1.6h.3v-1.045l.643 1.045h.322v-1.6h-.296v1.068zM21.637 51.702h.797v-.272h-.797v-.35h.857v-.273h-1.181v1.6h1.214v-.272h-.89v-.433zM28.912 51.438h-.63v-.63h-.32v1.599h.32v-.7h.63v.7h.322v-1.6h-.322v.63zM31.93 51.702h.8v-.272h-.8v-.35h.86v-.273H31.61v1.6h1.212v-.272h-.89v-.433zM36.023 51.702c.278-.043.42-.19.42-.445a.383.383 0 00-.157-.356.905.905 0 00-.468-.094h-.678v1.6h.322v-.669h.063a.431.431 0 01.2.036c.047.029.086.069.114.117l.349.508h.384l-.195-.313a1.115 1.115 0 00-.354-.384zm-.324-.22h-.237v-.403h.253a.838.838 0 01.326.039.208.208 0 01-.015.325.91.91 0 01-.327.038zM39.11 51.702h.796v-.272h-.796v-.35h.86v-.273h-1.184v1.6H40v-.272h-.89v-.433z" fill="#AFB1B8"/></svg>