<svg width="63" height="46" fill="none" xmlns="http://www.w3.org/2000/svg"><path d="M4.757 38.17c.244.276.373.622.367.977a1.43 1.43 0 01-.131.676 1.558 1.558 0 01-.438.558 2.627 2.627 0 01-1.651.45H0v-6.19h2.844a2.593 2.593 0 011.576.41c.184.141.33.32.425.52.096.201.139.42.127.64.016.34-.1.676-.33.946-.221.246-.526.416-.866.484.385.064.733.252.98.529zm-3.406-.935h1.216c.276.02.55-.054.773-.205a.738.738 0 00.207-.275.679.679 0 00.054-.33.7.7 0 00-.055-.33.76.76 0 00-.203-.275 1.255 1.255 0 00-.796-.209H1.35v1.624zM3.46 39.61a.776.776 0 00.224-.284.71.71 0 00.063-.345.722.722 0 00-.066-.35.788.788 0 00-.228-.285 1.338 1.338 0 00-.826-.224H1.351v1.703h1.292c.29.015.578-.06.816-.215zM10.57 40.832l-1.581-2.42h-.595v2.42H7.033V34.64H9.61a2.699 2.699 0 011.793.527c.36.336.578.778.613 1.248a1.86 1.86 0 01-.421 1.313 2.147 2.147 0 01-1.229.63l1.685 2.474h-1.48zm-2.176-3.264h1.113c.773 0 1.16-.312 1.16-.938a.852.852 0 00-.063-.375.917.917 0 00-.221-.32 1.282 1.282 0 00-.876-.251H8.381l.013 1.884zM18.01 39.586h-2.712l-.479 1.246h-1.427l2.49-6.122h1.543l2.481 6.122H18.48l-.469-1.246zm-.363-.938l-.991-2.614-.991 2.614h1.982zM27.322 40.832h-1.35l-3.03-4.21v4.21h-1.348V34.64h1.348l3.03 4.235V34.64h1.35v6.192zM35.033 39.35c-.28.467-.705.847-1.223 1.092a4.287 4.287 0 01-1.9.39h-2.404V34.64h2.405a4.376 4.376 0 011.9.381c.517.24.943.615 1.222 1.08.278.504.423 1.06.423 1.624 0 .565-.145 1.121-.423 1.625zm-1.546-.148a2.16 2.16 0 00.597-1.478c0-.542-.212-1.066-.597-1.478a2.488 2.488 0 00-1.692-.526h-.938v4.008h.938a2.489 2.489 0 001.692-.526zM18.856.202s17.438 6.028 17.069 14.75v14.755s-17.426-6.031-17.063-14.754L18.856.202zM51.46 26.253c3.294-2.075 7.103-3.36 11.08-3.739v-4.618c-4.582 1.617-8.47 4.549-11.08 8.357z" fill="#AFB1B8"/><path d="M49.482 27.644c2.695-4.97 7.368-8.805 13.058-10.716V3.62s-24.835 8.587-24.31 21.009v21.006s1.107-.384 2.848-1.104c0-.672 0-1.349.08-2.03.513-5.767 3.507-11.11 8.324-14.857z" fill="#AFB1B8"/><path d="M47.12 35.448a20.05 20.05 0 01.869-4.301c-3 3.235-4.816 7.25-5.193 11.478-.037.4-.057.799-.066 1.21a74.756 74.756 0 004.776-2.304c-.44-2.001-.57-4.049-.386-6.083zM48.108 35.523a19.051 19.051 0 00.307 5.508c6.785-3.717 14.41-9.46 14.115-16.402v-.605c-4.848.496-9.383 2.437-12.91 5.523a19.26 19.26 0 00-1.512 5.976z" fill="#AFB1B8"/></svg>