<svg width="94" height="45" fill="none" xmlns="http://www.w3.org/2000/svg"><path d="M47.425 20.843a2.947 2.947 0 01-.605-1.989v-2.883c0-.884.2-1.555.602-2.015.4-.46 1.089-.688 2.065-.686.917 0 1.569.195 1.953.587.42.498.625 1.109.578 1.724v.678h-1.64v-.687c.005-.224-.01-.449-.048-.671a.65.65 0 00-.235-.4.95.95 0 00-.594-.155 1.005 1.005 0 00-.625.165.768.768 0 00-.272.44 3.332 3.332 0 00-.065.712v3.5c-.026.337.047.675.21.982a.77.77 0 00.328.238.9.9 0 00.424.055.893.893 0 00.58-.158.704.704 0 00.245-.425c.038-.233.056-.467.051-.701v-.71h1.641v.648a2.64 2.64 0 01-.567 1.813c-.377.428-1.02.642-1.964.642s-1.658-.229-2.062-.704zM54.257 20.872c-.415-.448-.622-1.102-.622-1.968v-3.033c0-.856.207-1.504.622-1.944.414-.44 1.107-.659 2.079-.657.965 0 1.654.219 2.069.657.414.44.625 1.088.625 1.944v3.033c0 .857-.21 1.514-.632 1.965-.421.452-1.107.678-2.062.678-.955 0-1.661-.229-2.08-.675zm2.843-.727c.149-.281.216-.589.197-.898v-3.713a1.65 1.65 0 00-.193-.88.776.776 0 00-.335-.242.907.907 0 00-.433-.051.918.918 0 00-.434.052.786.786 0 00-.337.241c-.15.275-.217.577-.197.88v3.731c-.02.309.047.617.197.898.095.094.214.17.346.222a1.158 1.158 0 00.843 0c.133-.052.25-.128.346-.222v-.018zM61.004 13.358h1.766l1.328 5.596 1.36-5.596h1.718l.174 8.077h-1.271l-.136-5.613-1.311 5.613h-1.02l-1.358-5.634-.126 5.634h-1.284l.16-8.077zM69.33 13.358h2.752c1.585 0 2.378.765 2.378 2.294 0 1.464-.835 2.195-2.504 2.194h-.937v3.59H69.32l.01-8.078zm2.351 3.452c.168.019.338.005.5-.039.16-.044.31-.118.434-.216.195-.273.281-.593.245-.912a2.525 2.525 0 00-.082-.733.594.594 0 00-.125-.222.703.703 0 00-.214-.162 1.759 1.759 0 00-.758-.13h-.659v2.414h.66zM76.91 13.358h1.824l1.872 8.077h-1.584l-.37-1.862h-1.627l-.38 1.862h-1.607l1.871-8.077zm1.559 5.28l-.636-3.39-.635 3.39h1.27zM82.117 13.358h1.19l2.275 4.608v-4.608h1.41v8.077h-1.131l-2.29-4.81v4.81h-1.457l.003-8.077zM90.294 18.356l-1.892-4.986h1.594l1.155 3.202 1.083-3.202h1.56l-1.869 4.986v3.08h-1.63v-3.08zM50.048 24.966v.423h-1.386v3.282h-.581v-3.282h-1.393v-.423h3.36zM54.393 28.671h-.449a.2.2 0 01-.126-.035.194.194 0 01-.074-.085l-.401-.88H51.42l-.4.88a.242.242 0 01-.062.1.207.207 0 01-.126.035h-.448l1.699-3.704h.59l1.72 3.689zm-2.813-1.375h1.603l-.68-1.508a2.699 2.699 0 01-.125-.349c-.024.07-.044.138-.064.197l-.062.155-.672 1.505zM57.321 28.307c.107.005.213.005.32 0 .091-.008.182-.023.271-.044.083-.017.165-.04.245-.067.075-.027.15-.059.227-.091v-.833h-.679a.14.14 0 01-.092-.03.086.086 0 01-.026-.03.074.074 0 01-.008-.037v-.285h1.318v1.42a2.566 2.566 0 01-.716.302c-.14.036-.281.061-.425.077a5.16 5.16 0 01-.496.023 2.594 2.594 0 01-.856-.138 2.09 2.09 0 01-.68-.387 1.79 1.79 0 01-.438-.587 1.851 1.851 0 01-.156-.768 1.92 1.92 0 01.153-.775c.097-.22.247-.419.438-.586.194-.167.425-.298.68-.384.29-.095.6-.142.91-.138.158 0 .316.01.472.032.138.02.274.05.404.094.12.038.233.088.34.146.104.058.203.123.296.194l-.163.229a.143.143 0 01-.055.05.172.172 0 01-.078.02.222.222 0 01-.105-.03 2.113 2.113 0 01-.167-.087 1.504 1.504 0 00-.227-.1 2.127 2.127 0 00-.313-.082 2.614 2.614 0 00-.431-.032 2.009 2.009 0 00-.656.102c-.189.066-.36.166-.5.294a1.29 1.29 0 00-.315.46 1.732 1.732 0 000 1.235c.074.174.19.333.34.466.139.128.308.228.495.294.216.064.445.089.673.073zM62.736 28.248h1.855v.423H62.17v-3.705h.58l-.013 3.282zM66.52 28.67h-.58v-3.704h.58v3.705zM68.681 24.984a.28.28 0 01.089.067l2.483 2.793a.881.881 0 010-.132V24.952h.506v3.719h-.292a.275.275 0 01-.126-.02.328.328 0 01-.091-.071l-2.48-2.79V28.672h-.486v-3.705h.302c.033 0 .066.006.095.018zM76.036 24.966v.408h-2.058v1.223h1.668v.393h-1.668v1.264h2.058v.408H73.38v-3.696h2.656zM15.162 2.09l25.795 6.324v22.158l-25.795-6.32V2.09zM13.507.202v25.126l29.1 7.135V7.34L13.508.202z" fill="#AFB1B8"/><path d="M29.104 44.127L0 36.985V11.862L29.104 19v25.126z" fill="#AFB1B8"/><path d="M13.99 1.806L39.448 8.05 28.622 17.4 3.159 11.153l10.83-9.347zM13.507.202L0 11.862l29.104 7.139 13.504-11.66L13.508.2zM30.741 42.714l11.867-10.248-11.867-2.912v13.16z" fill="#AFB1B8"/></svg>